P3
30 40
255
255
0
255
255
0
255
255
0
255
97
54
3
174
105
23
174
105
23
97
54
3
255
0
255
255
0
255
255
0
255
255
0
255
255
0
255
255
0
255
255
0
255
255
0
255
255
0
255
255
0
255
255
251
246
255
251
246
255
251
246
88
64
33
88
64
33
88
64
33
88
64
33
88
64
33
88
64
33
88
64
33
88
64
33
88
64
33
88
64
33
174
105
23
255
0
255
255
0
255
174
105
23
174
105
23
174
105
23
174
105
23
255
0
255
255
0
255
174
105
23
255
0
255
255
0
255
255
0
255
255
0
255
255
0
255
255
0
255
255
0
255
255
0
255
255
251
246
255
251
246
88
64
33
88
64
33
46
37
23
88
64
33
88
64
33
88
64
33
88
64
33
88
64
33
88
64
33
46
37
23
97
54
3
174
105
23
174
105
23
174
105
23
174
105
23
174
105
23
174
105
23
174
105
23
174
105
23
97
54
3
255
0
255
255
0
255
255
0
255
255
0
255
255
0
255
255
0
255
255
0
255
214
118
5
255
0
255
255
251
246
88
64
33
88
64
33
88
64
33
88
64
33
88
64
33
88
64
33
46
37
23
88
64
33
88
64
33
88
64
33
255
0
255
97
54
3
97
54
3
97
54
3
97
54
3
97
54
3
97
54
3
97
54
3
97
54
3
255
0
255
255
0
255
255
0
255
255
0
255
255
0
255
255
0
255
255
0
255
214
118
5
255
0
255
255
0
255
255
0
255
88
64
33
88
64
33
88
64
33
88
64
33
88
64
33
88
64
33
88
64
33
88
64
33
46
37
23
88
64
33
255
0
255
255
0
255
255
199
133
255
199
133
255
199
133
255
199
133
255
199
133
255
199
133
255
0
255
255
0
255
255
0
255
255
0
255
255
0
255
255
0
255
255
0
255
214
118
5
255
0
255
255
0
255
255
0
255
255
0
255
88
64
33
88
64
33
88
64
33
88
64
33
88
64
33
88
64
33
88
64
33
88
64
33
88
64
33
88
64
33
255
0
255
82
44
0
82
44
0
174
105
23
255
232
204
255
232
204
174
105
23
82
44
0
82
44
0
255
0
255
255
0
255
255
0
255
255
0
255
255
0
255
214
118
5
255
0
255
255
0
255
255
0
255
255
0
255
255
0
255
88
64
33
88
64
33
88
64
33
88
64
33
46
37
23
88
64
33
88
64
33
88
64
33
88
64
33
88
64
33
255
0
255
82
44
0
82
44
0
174
105
23
255
232
204
255
232
204
174
105
23
82
44
0
82
44
0
255
0
255
255
0
255
255
0
255
255
0
255
214
118
5
255
0
255
255
0
255
255
0
255
255
0
255
255
0
255
255
0
255
88
64
33
88
64
33
88
64
33
88
64
33
88
64
33
88
64
33
88
64
33
88
64
33
88
64
33
88
64
33
255
0
255
82
44
0
82
44
0
174
105
23
255
232
204
255
232
204
174
105
23
82
44
0
82
44
0
255
0
255
214
118
5
214
118
5
214
118
5
255
0
255
255
0
255
255
0
255
255
0
255
255
0
255
255
0
255
255
0
255
88
64
33
46
37
23
88
64
33
88
64
33
88
64
33
88
64
33
46
37
23
88
64
33
88
64
33
88
64
33
255
0
255
255
0
255
80
60
36
80
60
36
80
60
36
80
60
36
80
60
36
80
60
36
255
0
255
255
0
255
255
0
255
214
118
5
214
118
5
255
0
255
255
0
255
255
0
255
255
0
255
255
0
255
255
0
255
255
0
255
88
64
33
88
64
33
88
64
33
88
64
33
88
64
33
88
64
33
88
64
33
88
64
33
88
64
33
88
64
33
255
0
255
255
0
255
80
60
36
80
60
36
255
0
255
255
0
255
80
60
36
80
60
36
255
0
255
255
0
255
255
0
255
255
0
255
214
118
5
255
0
255
255
0
255
255
0
255
255
0
255
255
0
255
255
0
255
255
0
255
88
64
33
88
64
33
88
64
33
46
37
23
88
64
33
88
64
33
88
64
33
88
64
33
88
64
33
88
64
33
0
0
0
0
0
0
0
0
0
0
0
0
0
0
0
0
0
0
0
0
0
0
0
0
0
0
0
0
0
0
0
0
0
0
0
0
0
0
0
0
0
0
0
0
0
0
0
0
0
0
0
0
0
0
0
0
0
0
0
0
0
0
0
0
0
0
0
0
0
0
0
0
0
0
0
0
0
0
0
0
0
0
0
0
0
0
0
0
0
0
0
0
0
0
0
0
0
0
0
0
0
0
44
39
32
44
39
32
44
39
32
44
39
32
0
0
0
0
0
0
44
39
32
0
0
0
0
0
0
0
0
0
44
39
32
0
0
0
0
0
0
44
39
32
0
0
0
0
0
0
0
0
0
0
0
0
44
39
32
44
39
32
44
39
32
44
39
32
0
0
0
0
0
0
0
0
0
0
0
0
0
0
0
0
0
0
0
0
0
44
39
32
75
68
59
75
68
59
44
39
32
75
68
59
44
39
32
44
39
32
75
68
59
44
39
32
44
39
32
44
39
32
44
39
32
44
39
32
44
39
32
75
68
59
44
39
32
44
39
32
44
39
32
44
39
32
75
68
59
44
39
32
75
68
59
75
68
59
44
39
32
0
0
0
0
0
0
0
0
0
0
0
0
0
0
0
44
39
32
44
39
32
75
68
59
75
68
59
44
39
32
75
68
59
75
68
59
75
68
59
75
68
59
75
68
59
75
68
59
75
68
59
44
39
32
75
68
59
75
68
59
75
68
59
75
68
59
75
68
59
75
68
59
75
68
59
75
68
59
44
39
32
75
68
59
75
68
59
44
39
32
44
39
32
0
0
0
0
0
0
0
0
0
44
39
32
44
39
32
75
68
59
75
68
59
44
39
32
75
68
59
75
68
59
75
68
59
44
39
32
75
68
59
44
39
32
75
68
59
75
68
59
75
68
59
44
39
32
75
68
59
75
68
59
44
39
32
75
68
59
44
39
32
75
68
59
75
68
59
75
68
59
44
39
32
75
68
59
75
68
59
44
39
32
44
39
32
0
0
0
0
0
0
44
39
32
44
39
32
75
68
59
75
68
59
44
39
32
75
68
59
75
68
59
75
68
59
44
39
32
75
68
59
44
39
32
75
68
59
75
68
59
75
68
59
44
39
32
75
68
59
75
68
59
44
39
32
75
68
59
44
39
32
75
68
59
75
68
59
75
68
59
44
39
32
75
68
59
75
68
59
44
39
32
44
39
32
0
0
0
0
0
0
44
39
32
75
68
59
75
68
59
75
68
59
75
68
59
44
39
32
44
39
32
75
68
59
44
39
32
75
68
59
44
39
32
75
68
59
44
39
32
75
68
59
44
39
32
75
68
59
44
39
32
75
68
59
75
68
59
44
39
32
75
68
59
44
39
32
44
39
32
75
68
59
75
68
59
75
68
59
75
68
59
44
39
32
0
0
0
0
0
0
44
39
32
44
39
32
75
68
59
75
68
59
75
68
59
75
68
59
44
39
32
75
68
59
75
68
59
75
68
59
44
39
32
75
68
59
44
39
32
75
68
59
75
68
59
75
68
59
44
39
32
75
68
59
75
68
59
75
68
59
75
68
59
44
39
32
75
68
59
75
68
59
75
68
59
75
68
59
44
39
32
44
39
32
0
0
0
0
0
0
44
39
32
75
68
59
75
68
59
44
39
32
44
39
32
75
68
59
75
68
59
75
68
59
75
68
59
75
68
59
75
68
59
75
68
59
44
39
32
75
68
59
75
68
59
75
68
59
75
68
59
75
68
59
75
68
59
75
68
59
75
68
59
75
68
59
75
68
59
44
39
32
44
39
32
75
68
59
75
68
59
44
39
32
0
0
0
0
0
0
44
39
32
44
39
32
44
39
32
75
68
59
44
39
32
44
39
32
44
39
32
75
68
59
44
39
32
44
39
32
44
39
32
44
39
32
44
39
32
44
39
32
44
39
32
44
39
32
44
39
32
44
39
32
44
39
32
44
39
32
75
68
59
75
68
59
44
39
32
44
39
32
75
68
59
44
39
32
44
39
32
44
39
32
0
0
0
0
0
0
44
39
32
75
68
59
75
68
59
75
68
59
75
68
59
75
68
59
75
68
59
75
68
59
44
39
32
128
99
62
128
99
62
128
99
62
128
99
62
128
99
62
128
99
62
128
99
62
128
99
62
128
99
62
128
99
62
44
39
32
75
68
59
75
68
59
75
68
59
75
68
59
75
68
59
75
68
59
75
68
59
44
39
32
0
0
0
0
0
0
44
39
32
75
68
59
75
68
59
44
39
32
44
39
32
75
68
59
75
68
59
75
68
59
44
39
32
128
99
62
128
99
62
75
62
44
128
99
62
128
99
62
128
99
62
128
99
62
128
99
62
128
99
62
75
62
44
44
39
32
75
68
59
75
68
59
75
68
59
44
39
32
44
39
32
75
68
59
75
68
59
44
39
32
0
0
0
0
0
0
44
39
32
75
68
59
75
68
59
75
68
59
75
68
59
44
39
32
44
39
32
75
68
59
44
39
32
128
99
62
128
99
62
128
99
62
128
99
62
128
99
62
128
99
62
75
62
44
128
99
62
128
99
62
128
99
62
44
39
32
75
68
59
44
39
32
44
39
32
75
68
59
75
68
59
75
68
59
75
68
59
44
39
32
0
0
0
0
0
0
0
0
0
44
39
32
75
68
59
75
68
59
75
68
59
75
68
59
75
68
59
75
68
59
44
39
32
128
99
62
128
99
62
128
99
62
128
99
62
128
99
62
128
99
62
128
99
62
128
99
62
75
62
44
128
99
62
44
39
32
75
68
59
75
68
59
75
68
59
75
68
59
75
68
59
75
68
59
44
39
32
0
0
0
0
0
0
0
0
0
0
0
0
44
39
32
75
68
59
75
68
59
44
39
32
44
39
32
44
39
32
44
39
32
44
39
32
128
99
62
128
99
62
128
99
62
128
99
62
128
99
62
128
99
62
128
99
62
128
99
62
128
99
62
128
99
62
44
39
32
44
39
32
44
39
32
44
39
32
44
39
32
75
68
59
75
68
59
44
39
32
0
0
0
0
0
0
0
0
0
44
39
32
44
39
32
44
39
32
75
68
59
75
68
59
75
68
59
75
68
59
75
68
59
44
39
32
128
99
62
128
99
62
128
99
62
128
99
62
75
62
44
128
99
62
128
99
62
128
99
62
128
99
62
128
99
62
44
39
32
75
68
59
75
68
59
75
68
59
75
68
59
75
68
59
44
39
32
44
39
32
44
39
32
0
0
0
0
0
0
0
0
0
44
39
32
75
68
59
75
68
59
75
68
59
44
39
32
44
39
32
75
68
59
44
39
32
128
99
62
128
99
62
128
99
62
128
99
62
128
99
62
128
99
62
128
99
62
128
99
62
128
99
62
128
99
62
44
39
32
75
68
59
44
39
32
44
39
32
75
68
59
75
68
59
75
68
59
44
39
32
0
0
0
0
0
0
0
0
0
0
0
0
44
39
32
44
39
32
75
68
59
75
68
59
75
68
59
75
68
59
75
68
59
44
39
32
128
99
62
75
62
44
128
99
62
128
99
62
128
99
62
128
99
62
75
62
44
128
99
62
128
99
62
128
99
62
44
39
32
75
68
59
75
68
59
75
68
59
75
68
59
75
68
59
44
39
32
44
39
32
0
0
0
0
0
0
0
0
0
0
0
0
44
39
32
75
68
59
44
39
32
44
39
32
44
39
32
44
39
32
75
68
59
44
39
32
128
99
62
128
99
62
128
99
62
128
99
62
128
99
62
128
99
62
128
99
62
128
99
62
128
99
62
128
99
62
44
39
32
75
68
59
44
39
32
44
39
32
44
39
32
44
39
32
75
68
59
44
39
32
0
0
0
0
0
0
0
0
0
44
39
32
75
68
59
75
68
59
75
68
59
75
68
59
75
68
59
75
68
59
75
68
59
44
39
32
128
99
62
128
99
62
128
99
62
75
62
44
128
99
62
128
99
62
128
99
62
128
99
62
128
99
62
128
99
62
44
39
32
75
68
59
75
68
59
75
68
59
75
68
59
75
68
59
75
68
59
75
68
59
44
39
32
0
0
0
0
0
0
44
39
32
44
39
32
44
39
32
75
68
59
44
39
32
44
39
32
44
39
32
75
68
59
44
39
32
44
39
32
44
39
32
44
39
32
44
39
32
44
39
32
44
39
32
44
39
32
44
39
32
44
39
32
44
39
32
44
39
32
75
68
59
75
68
59
44
39
32
44
39
32
75
68
59
44
39
32
44
39
32
44
39
32
0
0
0
0
0
0
44
39
32
75
68
59
75
68
59
44
39
32
44
39
32
75
68
59
75
68
59
75
68
59
75
68
59
75
68
59
75
68
59
75
68
59
44
39
32
75
68
59
75
68
59
75
68
59
75
68
59
75
68
59
75
68
59
75
68
59
75
68
59
75
68
59
75
68
59
44
39
32
44
39
32
75
68
59
75
68
59
44
39
32
0
0
0
0
0
0
44
39
32
44
39
32
75
68
59
75
68
59
75
68
59
75
68
59
44
39
32
75
68
59
75
68
59
75
68
59
44
39
32
75
68
59
44
39
32
75
68
59
75
68
59
75
68
59
44
39
32
75
68
59
75
68
59
75
68
59
75
68
59
44
39
32
75
68
59
75
68
59
75
68
59
75
68
59
44
39
32
44
39
32
0
0
0
0
0
0
44
39
32
75
68
59
75
68
59
75
68
59
75
68
59
44
39
32
44
39
32
75
68
59
44
39
32
75
68
59
44
39
32
75
68
59
44
39
32
75
68
59
44
39
32
75
68
59
44
39
32
75
68
59
75
68
59
44
39
32
75
68
59
44
39
32
44
39
32
75
68
59
75
68
59
75
68
59
75
68
59
44
39
32
0
0
0
0
0
0
44
39
32
44
39
32
75
68
59
75
68
59
44
39
32
75
68
59
75
68
59
75
68
59
44
39
32
75
68
59
44
39
32
75
68
59
75
68
59
75
68
59
44
39
32
75
68
59
75
68
59
44
39
32
75
68
59
44
39
32
75
68
59
75
68
59
75
68
59
44
39
32
75
68
59
75
68
59
44
39
32
44
39
32
0
0
0
0
0
0
44
39
32
44
39
32
75
68
59
75
68
59
44
39
32
75
68
59
75
68
59
75
68
59
44
39
32
75
68
59
44
39
32
75
68
59
75
68
59
75
68
59
44
39
32
75
68
59
75
68
59
44
39
32
75
68
59
44
39
32
75
68
59
75
68
59
75
68
59
44
39
32
75
68
59
75
68
59
44
39
32
44
39
32
0
0
0
0
0
0
0
0
0
44
39
32
44
39
32
75
68
59
75
68
59
44
39
32
75
68
59
75
68
59
75
68
59
75
68
59
75
68
59
75
68
59
75
68
59
44
39
32
75
68
59
75
68
59
75
68
59
75
68
59
75
68
59
75
68
59
75
68
59
75
68
59
44
39
32
75
68
59
75
68
59
44
39
32
44
39
32
0
0
0
0
0
0
0
0
0
0
0
0
0
0
0
44
39
32
75
68
59
75
68
59
44
39
32
75
68
59
44
39
32
44
39
32
75
68
59
44
39
32
44
39
32
44
39
32
44
39
32
44
39
32
44
39
32
75
68
59
44
39
32
44
39
32
44
39
32
44
39
32
75
68
59
44
39
32
75
68
59
75
68
59
44
39
32
0
0
0
0
0
0
0
0
0
0
0
0
0
0
0
0
0
0
0
0
0
44
39
32
44
39
32
44
39
32
44
39
32
0
0
0
0
0
0
44
39
32
0
0
0
0
0
0
0
0
0
44
39
32
0
0
0
0
0
0
44
39
32
0
0
0
0
0
0
0
0
0
0
0
0
44
39
32
44
39
32
44
39
32
44
39
32
0
0
0
0
0
0
0
0
0
0
0
0
0
0
0
0
0
0
0
0
0
0
0
0
0
0
0
0
0
0
0
0
0
0
0
0
0
0
0
0
0
0
0
0
0
0
0
0
0
0
0
0
0
0
0
0
0
0
0
0
0
0
0
0
0
0
0
0
0
0
0
0
0
0
0
0
0
0
0
0
0
0
0
0
0
0
0
0
0
0
0
0
0
0
0
0
0
0
0
0
0
0
