P3
24 32
255
255
0
255
255
0
255
255
0
255
255
0
255
255
0
255
255
0
255
255
0
255
255
255
0
255
0
255
255
0
255
255
0
255
255
0
255
255
0
255
255
251
246
255
251
246
255
251
246
88
64
33
88
64
33
88
64
33
88
64
33
88
64
33
88
64
33
88
64
33
88
64
33
255
0
255
255
0
255
255
0
255
46
37
23
46
37
23
255
0
255
255
0
255
255
0
0
255
0
255
255
0
255
255
0
255
255
0
255
255
0
255
255
0
255
255
251
246
255
251
246
88
64
33
46
37
23
88
64
33
88
64
33
88
64
33
88
64
33
88
64
33
88
64
33
255
0
255
75
68
59
75
68
59
0
127
127
214
118
5
75
68
59
75
68
59
44
39
32
255
0
255
255
0
255
255
0
255
255
0
255
255
0
255
214
118
5
255
0
255
255
251
246
88
64
33
88
64
33
88
64
33
88
64
33
88
64
33
46
37
23
88
64
33
88
64
33
255
0
255
255
0
255
75
68
59
214
118
5
75
68
59
255
0
255
255
0
255
255
0
255
255
0
255
255
0
255
255
0
255
255
0
255
214
118
5
255
0
255
255
0
255
255
0
255
88
64
33
88
64
33
88
64
33
88
64
33
88
64
33
88
64
33
88
64
33
46
37
23
255
0
255
255
0
255
46
37
23
75
68
59
255
0
255
255
0
255
255
0
255
255
0
255
255
0
255
255
0
255
255
0
255
214
118
5
255
0
255
255
0
255
255
0
255
255
0
255
88
64
33
88
64
33
88
64
33
88
64
33
88
64
33
88
64
33
88
64
33
88
64
33
255
0
255
255
0
255
46
37
23
46
37
23
255
0
255
255
0
255
255
0
255
255
0
255
255
0
255
255
0
255
214
118
5
255
0
255
255
0
255
255
0
255
255
0
255
255
0
255
88
64
33
88
64
33
88
64
33
46
37
23
88
64
33
88
64
33
88
64
33
88
64
33
255
0
255
46
37
23
255
0
255
255
0
255
46
37
23
46
37
23
255
0
255
255
0
255
255
0
255
214
118
5
255
0
255
255
0
255
255
0
255
255
0
255
255
0
255
255
0
255
88
64
33
88
64
33
88
64
33
88
64
33
88
64
33
88
64
33
88
64
33
88
64
33
46
37
23
255
0
255
255
0
255
255
0
255
255
0
255
255
0
255
255
0
255
255
0
255
255
0
255
255
0
255
255
0
255
255
0
255
255
0
255
255
0
255
255
0
255
255
0
255
46
37
23
88
64
33
88
64
33
88
64
33
88
64
33
88
64
33
46
37
23
88
64
33
0
0
0
0
0
0
0
0
0
44
39
32
44
39
32
44
39
32
44
39
32
0
0
0
0
0
0
44
39
32
0
0
0
0
0
0
0
0
0
44
39
32
0
0
0
0
0
0
0
0
0
44
39
32
44
39
32
44
39
32
44
39
32
0
0
0
0
0
0
0
0
0
0
0
0
0
0
0
44
39
32
75
68
59
75
68
59
44
39
32
75
68
59
44
39
32
44
39
32
75
68
59
44
39
32
44
39
32
44
39
32
44
39
32
44
39
32
44
39
32
44
39
32
75
68
59
44
39
32
75
68
59
75
68
59
44
39
32
0
0
0
0
0
0
0
0
0
44
39
32
44
39
32
75
68
59
75
68
59
44
39
32
75
68
59
75
68
59
75
68
59
75
68
59
75
68
59
75
68
59
75
68
59
44
39
32
75
68
59
75
68
59
75
68
59
75
68
59
44
39
32
75
68
59
75
68
59
44
39
32
44
39
32
0
0
0
44
39
32
44
39
32
75
68
59
75
68
59
44
39
32
75
68
59
75
68
59
75
68
59
44
39
32
75
68
59
44
39
32
75
68
59
75
68
59
75
68
59
44
39
32
75
68
59
75
68
59
75
68
59
75
68
59
44
39
32
75
68
59
75
68
59
44
39
32
44
39
32
44
39
32
44
39
32
75
68
59
75
68
59
44
39
32
75
68
59
75
68
59
75
68
59
44
39
32
75
68
59
44
39
32
75
68
59
75
68
59
75
68
59
44
39
32
75
68
59
75
68
59
75
68
59
75
68
59
44
39
32
75
68
59
75
68
59
44
39
32
44
39
32
44
39
32
75
68
59
75
68
59
75
68
59
75
68
59
44
39
32
44
39
32
75
68
59
44
39
32
75
68
59
44
39
32
75
68
59
44
39
32
75
68
59
44
39
32
75
68
59
75
68
59
44
39
32
44
39
32
75
68
59
75
68
59
75
68
59
75
68
59
44
39
32
44
39
32
44
39
32
75
68
59
75
68
59
75
68
59
75
68
59
44
39
32
75
68
59
75
68
59
75
68
59
44
39
32
75
68
59
44
39
32
75
68
59
75
68
59
75
68
59
75
68
59
44
39
32
75
68
59
75
68
59
75
68
59
75
68
59
44
39
32
44
39
32
44
39
32
75
68
59
75
68
59
44
39
32
44
39
32
75
68
59
75
68
59
44
39
32
44
39
32
44
39
32
44
39
32
44
39
32
44
39
32
44
39
32
44
39
32
44
39
32
44
39
32
75
68
59
75
68
59
44
39
32
44
39
32
75
68
59
75
68
59
44
39
32
44
39
32
44
39
32
44
39
32
75
68
59
44
39
32
44
39
32
44
39
32
44
39
32
128
99
62
128
99
62
128
99
62
128
99
62
128
99
62
128
99
62
128
99
62
128
99
62
44
39
32
75
68
59
44
39
32
44
39
32
75
68
59
44
39
32
44
39
32
44
39
32
44
39
32
75
68
59
75
68
59
75
68
59
75
68
59
75
68
59
75
68
59
44
39
32
128
99
62
128
99
62
75
62
44
128
99
62
128
99
62
128
99
62
128
99
62
128
99
62
44
39
32
75
68
59
75
68
59
75
68
59
75
68
59
75
68
59
75
68
59
44
39
32
44
39
32
75
68
59
75
68
59
44
39
32
44
39
32
75
68
59
75
68
59
44
39
32
128
99
62
128
99
62
128
99
62
128
99
62
128
99
62
128
99
62
75
62
44
128
99
62
44
39
32
75
68
59
75
68
59
44
39
32
44
39
32
75
68
59
75
68
59
44
39
32
44
39
32
75
68
59
75
68
59
75
68
59
75
68
59
44
39
32
44
39
32
44
39
32
128
99
62
128
99
62
128
99
62
128
99
62
128
99
62
128
99
62
128
99
62
128
99
62
44
39
32
44
39
32
44
39
32
75
68
59
75
68
59
75
68
59
75
68
59
44
39
32
0
0
0
44
39
32
75
68
59
75
68
59
75
68
59
75
68
59
75
68
59
44
39
32
128
99
62
128
99
62
128
99
62
128
99
62
128
99
62
128
99
62
128
99
62
128
99
62
44
39
32
75
68
59
75
68
59
75
68
59
75
68
59
75
68
59
44
39
32
0
0
0
0
0
0
44
39
32
75
68
59
75
68
59
44
39
32
44
39
32
44
39
32
44
39
32
128
99
62
128
99
62
128
99
62
128
99
62
75
62
44
128
99
62
128
99
62
128
99
62
44
39
32
44
39
32
44
39
32
44
39
32
75
68
59
75
68
59
44
39
32
0
0
0
44
39
32
44
39
32
44
39
32
75
68
59
75
68
59
75
68
59
75
68
59
44
39
32
128
99
62
128
99
62
128
99
62
128
99
62
128
99
62
128
99
62
128
99
62
128
99
62
44
39
32
75
68
59
75
68
59
75
68
59
75
68
59
44
39
32
44
39
32
44
39
32
0
0
0
44
39
32
75
68
59
75
68
59
75
68
59
44
39
32
44
39
32
44
39
32
128
99
62
75
62
44
128
99
62
128
99
62
128
99
62
128
99
62
75
62
44
128
99
62
44
39
32
44
39
32
44
39
32
75
68
59
75
68
59
75
68
59
44
39
32
0
0
0
44
39
32
75
68
59
75
68
59
44
39
32
44
39
32
75
68
59
75
68
59
44
39
32
44
39
32
44
39
32
44
39
32
44
39
32
44
39
32
44
39
32
44
39
32
44
39
32
44
39
32
75
68
59
75
68
59
44
39
32
44
39
32
75
68
59
75
68
59
44
39
32
44
39
32
44
39
32
75
68
59
75
68
59
75
68
59
75
68
59
44
39
32
75
68
59
75
68
59
75
68
59
44
39
32
75
68
59
44
39
32
75
68
59
75
68
59
75
68
59
75
68
59
44
39
32
75
68
59
75
68
59
75
68
59
75
68
59
44
39
32
44
39
32
44
39
32
75
68
59
75
68
59
75
68
59
75
68
59
44
39
32
44
39
32
75
68
59
44
39
32
75
68
59
44
39
32
75
68
59
44
39
32
75
68
59
44
39
32
75
68
59
75
68
59
44
39
32
44
39
32
75
68
59
75
68
59
75
68
59
75
68
59
44
39
32
44
39
32
44
39
32
75
68
59
75
68
59
44
39
32
75
68
59
75
68
59
75
68
59
44
39
32
75
68
59
44
39
32
75
68
59
75
68
59
75
68
59
44
39
32
75
68
59
75
68
59
75
68
59
75
68
59
44
39
32
75
68
59
75
68
59
44
39
32
44
39
32
44
39
32
44
39
32
75
68
59
75
68
59
44
39
32
75
68
59
75
68
59
75
68
59
44
39
32
75
68
59
44
39
32
75
68
59
75
68
59
75
68
59
44
39
32
75
68
59
75
68
59
75
68
59
75
68
59
44
39
32
75
68
59
75
68
59
44
39
32
44
39
32
0
0
0
44
39
32
44
39
32
75
68
59
75
68
59
44
39
32
75
68
59
75
68
59
75
68
59
75
68
59
75
68
59
75
68
59
75
68
59
44
39
32
75
68
59
75
68
59
75
68
59
75
68
59
44
39
32
75
68
59
75
68
59
44
39
32
44
39
32
0
0
0
0
0
0
0
0
0
44
39
32
75
68
59
75
68
59
44
39
32
75
68
59
44
39
32
44
39
32
75
68
59
44
39
32
44
39
32
44
39
32
44
39
32
44
39
32
44
39
32
44
39
32
75
68
59
44
39
32
75
68
59
75
68
59
44
39
32
0
0
0
0
0
0
0
0
0
0
0
0
0
0
0
44
39
32
44
39
32
44
39
32
44
39
32
0
0
0
0
0
0
44
39
32
0
0
0
0
0
0
0
0
0
44
39
32
0
0
0
0
0
0
0
0
0
44
39
32
44
39
32
44
39
32
44
39
32
0
0
0
0
0
0
0
0
0
